<svg width="101" height="40" viewBox="0 0 101 40" fill="none" xmlns="http://www.w3.org/2000/svg">
<g clip-path="url(#clip0_10_254)">
<path d="M16.157 33.3937C13.9024 31.7672 11.9168 29.2915 10.709 26.6018C9.25122 23.3547 8.95105 19.9364 9.84067 16.7164C10.2322 15.2991 10.8941 14.0738 11.7548 13.1731C12.6061 12.282 13.6297 11.7211 14.7144 11.5519C16.7015 11.242 18.6128 12.2496 19.9579 14.3162L19.6231 15.1665L18.769 15.0961C17.7426 13.5191 16.3435 12.7406 14.9326 12.9607C13.2699 13.2197 11.8434 14.8048 11.2094 17.0975C9.54949 23.1028 12.8589 29.2587 16.9855 32.2359L17.0897 33.2268L16.1565 33.3937H16.157Z" fill="url(#paint0_linear_10_254)"/>
<path d="M24.3714 13.819C22.5623 8.16549 17.3264 5.96064 13.089 6.70542C9.87191 7.27053 6.49761 9.64838 6.67421 14.627L5.92426 15.1289L5.2548 14.6774C5.16532 12.1607 5.90627 9.93688 7.39717 8.24677C8.73609 6.7287 10.6706 5.68213 12.8442 5.30047C15.4032 4.85085 18.073 5.31663 20.3617 6.61178C22.9146 8.05618 24.7686 10.3974 25.7235 13.3827L25.0986 14.0595L24.3714 13.8185V13.819Z" fill="url(#paint1_linear_10_254)"/>
<path d="M25.7235 13.3831C27.3906 18.5927 25.9451 24.3203 24.4391 28.2082C22.4837 33.2557 19.6705 37.3132 17.69 39.4268L16.6555 38.4501C18.4584 36.5261 21.2319 32.5537 23.1158 27.691C24.5385 24.0185 25.9115 18.6307 24.3718 13.8189L25.724 13.3831H25.7235Z" fill="url(#paint2_linear_10_254)"/>
<path d="M4.22126 22.99C5.68423 25.7371 7.06576 28.3317 6.43749 31.6582C6.38304 31.9458 6.48673 32.2295 6.69505 32.364C9.37715 34.0988 12.1146 35.873 16.0992 38.4938C16.2834 38.615 16.5173 38.5969 16.6551 38.4496L17.3823 38.6777L17.6895 39.4263C17.3354 39.8041 16.852 39.9995 16.3596 39.9995C16.0026 39.9995 15.6409 39.8968 15.3204 39.6858C11.3401 37.0674 8.60495 35.2951 5.92569 33.5617C5.22545 33.1088 4.87841 32.2571 5.04175 31.3916C5.57675 28.5594 4.36803 26.2894 2.96851 23.6611L3.4126 22.9919L4.22126 22.989V22.99Z" fill="url(#paint3_linear_10_254)"/>
<path d="M17.6024 0.341784C21.8294 1.12791 25.555 3.41545 28.3768 6.95728C29.8184 8.76669 31.021 10.896 31.9509 13.2862C32.9091 15.7496 33.5824 18.502 33.9512 21.4663L33.241 22.0305L32.5417 21.6426C31.1806 10.6987 25.4991 3.26003 17.3439 1.7434L16.9907 0.949198L17.6029 0.341309L17.6024 0.341784Z" fill="url(#paint4_linear_10_254)"/>
<path d="M33.9512 21.4668C34.2627 23.972 33.0658 26.1108 31.0413 26.6688C30.4301 26.837 29.7512 27.2405 29.6778 27.8679C29.282 31.26 27.5989 33.8503 25.0598 34.9749C23.7795 35.5419 22.3114 35.7082 20.8143 35.4558C19.2562 35.193 17.6891 34.4991 16.1565 33.3936L16.9855 32.2358C19.5819 34.1089 22.3156 34.6317 24.4864 33.6702C26.553 32.7548 27.9312 30.5794 28.2669 27.7016C28.399 26.5709 29.2953 25.6707 30.665 25.2933C31.9916 24.9278 32.7633 23.4264 32.5412 21.6426L33.9507 21.4658L33.9512 21.4668Z" fill="url(#paint5_linear_10_254)"/>
<path d="M14.6174 24.848C13.3471 24.848 12.0016 24.4925 10.7109 23.7862C9.20772 22.9635 7.90951 21.7382 6.95693 20.242C5.91439 18.6042 5.32541 16.6802 5.25439 14.6779L6.6738 14.627C6.81584 18.6318 9.20346 21.3376 11.3903 22.5343C13.3604 23.6123 15.4407 23.7159 16.9543 22.8109C18.2085 22.0609 19.0863 20.8376 19.4258 19.3656C19.7733 17.8585 19.5275 16.2625 18.7686 15.0966L19.9574 14.3167C20.9238 15.8014 21.2424 17.809 20.8092 19.6869C20.3817 21.541 19.2709 23.0852 17.6806 24.0358C16.773 24.5781 15.7234 24.848 14.6169 24.848H14.6174Z" fill="url(#paint6_linear_10_254)"/>
<path d="M2.96901 23.6621C1.58369 21.0613 0.0141968 18.1131 -6.75628e-06 14.1321C-0.00805544 11.8346 0.405268 9.7115 1.2286 7.82271C2.02921 5.98621 3.1939 4.41919 4.69095 3.16492C7.98144 0.408263 12.5668 -0.594589 17.6025 0.341723L17.344 1.74381C12.7316 0.885925 8.56142 1.77946 5.6014 4.2595C2.89089 6.53089 1.40615 10.0352 1.42035 14.1269C1.43313 17.7533 2.85065 20.4154 4.22129 22.9895L2.96854 23.6616L2.96901 23.6621Z" fill="url(#paint7_linear_10_254)"/>
</g>
<mask id="path-9-outside-1_10_254" maskUnits="userSpaceOnUse" x="39" y="9" width="60" height="22" fill="black">
<rect fill="white" x="39" y="9" width="60" height="22"/>
<path d="M53.5472 30H50.6239V12.4742H40.2852V9.5508H63.8859V12.4742H53.5472V30ZM89.8675 30H86.9442V24.1533H70.6304V21.2442H86.9442V12.4742H76.4629C75.4647 12.4742 74.5235 12.669 73.6394 13.0588C72.7552 13.4391 71.9852 13.962 71.3292 14.6275C70.6732 15.2834 70.1504 16.0535 69.7606 16.9376C69.3803 17.8217 69.1902 18.7677 69.1902 19.7754V30H66.2668V19.7754C66.2668 18.8342 66.3856 17.9311 66.6233 17.066C66.8705 16.1913 67.2127 15.3785 67.6501 14.6275C68.0969 13.8669 68.6293 13.1777 69.2472 12.5597C69.8747 11.9323 70.5639 11.3951 71.3149 10.9483C72.0755 10.5015 72.8883 10.1592 73.7534 9.92157C74.6186 9.67439 75.5217 9.5508 76.4629 9.5508H89.8675V30ZM98.2805 30H95.3571V9.5508H98.2805V30Z"/>
</mask>
<path d="M53.5472 30H50.6239V12.4742H40.2852V9.5508H63.8859V12.4742H53.5472V30ZM89.8675 30H86.9442V24.1533H70.6304V21.2442H86.9442V12.4742H76.4629C75.4647 12.4742 74.5235 12.669 73.6394 13.0588C72.7552 13.4391 71.9852 13.962 71.3292 14.6275C70.6732 15.2834 70.1504 16.0535 69.7606 16.9376C69.3803 17.8217 69.1902 18.7677 69.1902 19.7754V30H66.2668V19.7754C66.2668 18.8342 66.3856 17.9311 66.6233 17.066C66.8705 16.1913 67.2127 15.3785 67.6501 14.6275C68.0969 13.8669 68.6293 13.1777 69.2472 12.5597C69.8747 11.9323 70.5639 11.3951 71.3149 10.9483C72.0755 10.5015 72.8883 10.1592 73.7534 9.92157C74.6186 9.67439 75.5217 9.5508 76.4629 9.5508H89.8675V30ZM98.2805 30H95.3571V9.5508H98.2805V30Z" fill="white"/>
<path d="M53.5472 30V30.5H54.0472V30H53.5472ZM50.6239 30H50.1239V30.5H50.6239V30ZM50.6239 12.4742H51.1239V11.9742H50.6239V12.4742ZM40.2852 12.4742H39.7852V12.9742H40.2852V12.4742ZM40.2852 9.5508V9.0508H39.7852V9.5508H40.2852ZM63.8859 9.5508H64.3859V9.0508H63.8859V9.5508ZM63.8859 12.4742V12.9742H64.3859V12.4742H63.8859ZM53.5472 12.4742V11.9742H53.0472V12.4742H53.5472ZM53.5472 29.5H50.6239V30.5H53.5472V29.5ZM51.1239 30V12.4742H50.1239V30H51.1239ZM50.6239 11.9742H40.2852V12.9742H50.6239V11.9742ZM40.7852 12.4742V9.5508H39.7852V12.4742H40.7852ZM40.2852 10.0508H63.8859V9.0508H40.2852V10.0508ZM63.3859 9.5508V12.4742H64.3859V9.5508H63.3859ZM63.8859 11.9742H53.5472V12.9742H63.8859V11.9742ZM53.0472 12.4742V30H54.0472V12.4742H53.0472ZM89.8675 30V30.5H90.3675V30H89.8675ZM86.9442 30H86.4442V30.5H86.9442V30ZM86.9442 24.1533H87.4442V23.6533H86.9442V24.1533ZM70.6304 24.1533H70.1304V24.6533H70.6304V24.1533ZM70.6304 21.2442V20.7442H70.1304V21.2442H70.6304ZM86.9442 21.2442V21.7442H87.4442V21.2442H86.9442ZM86.9442 12.4742H87.4442V11.9742H86.9442V12.4742ZM73.6394 13.0588L73.8369 13.5182L73.8411 13.5163L73.6394 13.0588ZM71.3292 14.6275L71.6828 14.981L71.6853 14.9785L71.3292 14.6275ZM69.7606 16.9376L69.303 16.7359L69.3013 16.7401L69.7606 16.9376ZM69.1902 30V30.5H69.6902V30H69.1902ZM66.2668 30H65.7668V30.5H66.2668V30ZM66.6233 17.066L66.1421 16.93L66.1412 16.9335L66.6233 17.066ZM67.6501 14.6275L67.2189 14.3742L67.218 14.3759L67.6501 14.6275ZM71.3149 10.9483L71.0617 10.5172L71.0593 10.5186L71.3149 10.9483ZM73.7534 9.92157L73.8859 10.4037L73.8908 10.4023L73.7534 9.92157ZM89.8675 9.5508H90.3675V9.0508H89.8675V9.5508ZM89.8675 29.5H86.9442V30.5H89.8675V29.5ZM87.4442 30V24.1533H86.4442V30H87.4442ZM86.9442 23.6533H70.6304V24.6533H86.9442V23.6533ZM71.1304 24.1533V21.2442H70.1304V24.1533H71.1304ZM70.6304 21.7442H86.9442V20.7442H70.6304V21.7442ZM87.4442 21.2442V12.4742H86.4442V21.2442H87.4442ZM86.9442 11.9742H76.4629V12.9742H86.9442V11.9742ZM76.4629 11.9742C75.3976 11.9742 74.3875 12.1826 73.4377 12.6013L73.8411 13.5163C74.6595 13.1555 75.5318 12.9742 76.4629 12.9742V11.9742ZM73.4418 12.5995C72.5001 13.0045 71.6758 13.5636 70.9731 14.2765L71.6853 14.9785C72.2945 14.3604 73.0103 13.8737 73.8369 13.5181L73.4418 12.5995ZM70.9756 14.2739C70.2741 14.9754 69.7167 15.7976 69.3031 16.7359L70.2181 17.1393C70.584 16.3094 71.0723 15.5914 71.6828 14.981L70.9756 14.2739ZM69.3013 16.7401C68.8929 17.6895 68.6902 18.703 68.6902 19.7754H69.6902C69.6902 18.8324 69.8677 17.954 70.2199 17.1352L69.3013 16.7401ZM68.6902 19.7754V30H69.6902V19.7754H68.6902ZM69.1902 29.5H66.2668V30.5H69.1902V29.5ZM66.7668 30V19.7754H65.7668V30H66.7668ZM66.7668 19.7754C66.7668 18.8768 66.8802 18.0183 67.1055 17.1984L66.1412 16.9335C65.8911 17.8438 65.7668 18.7917 65.7668 19.7754H66.7668ZM67.1045 17.2019C67.3407 16.3659 67.6669 15.5921 68.0821 14.879L67.218 14.3759C66.7586 15.1648 66.4002 16.0168 66.1422 16.93L67.1045 17.2019ZM68.0812 14.8807C68.5067 14.1564 69.0131 13.5009 69.6008 12.9133L68.8936 12.2062C68.2454 12.8544 67.6871 13.5774 67.2189 14.3742L68.0812 14.8807ZM69.6008 12.9133C70.1993 12.3147 70.8558 11.8033 71.5706 11.378L71.0593 10.5186C70.272 10.987 69.55 11.5498 68.8936 12.2062L69.6008 12.9133ZM71.5682 11.3794C72.2903 10.9552 73.0624 10.6299 73.8859 10.4037L73.621 9.43943C72.7143 9.68853 71.8607 10.0478 71.0617 10.5172L71.5682 11.3794ZM73.8908 10.4023C74.7092 10.1685 75.566 10.0508 76.4629 10.0508V9.0508C75.4774 9.0508 74.5279 9.18029 73.6161 9.44081L73.8908 10.4023ZM76.4629 10.0508H89.8675V9.0508H76.4629V10.0508ZM89.3675 9.5508V30H90.3675V9.5508H89.3675ZM98.2805 30V30.5H98.7805V30H98.2805ZM95.3571 30H94.8571V30.5H95.3571V30ZM95.3571 9.5508V9.0508H94.8571V9.5508H95.3571ZM98.2805 9.5508H98.7805V9.0508H98.2805V9.5508ZM98.2805 29.5H95.3571V30.5H98.2805V29.5ZM95.8571 30V9.5508H94.8571V30H95.8571ZM95.3571 10.0508H98.2805V9.0508H95.3571V10.0508ZM97.7805 9.5508V30H98.7805V9.5508H97.7805Z" fill="white" mask="url(#path-9-outside-1_10_254)"/>
<defs>
<linearGradient id="paint0_linear_10_254" x1="14.8185" y1="15.3661" x2="13.2437" y2="30.4808" gradientUnits="userSpaceOnUse">
<stop stop-color="#FF3DF9"/>
<stop offset="1" stop-color="#644DFF"/>
</linearGradient>
<linearGradient id="paint1_linear_10_254" x1="23.9159" y1="9.44591" x2="6.80077" y2="10.2949" gradientUnits="userSpaceOnUse">
<stop stop-color="#FF7940"/>
<stop offset="1" stop-color="#FF3269"/>
</linearGradient>
<linearGradient id="paint2_linear_10_254" x1="18.8533" y1="38.7975" x2="26.3866" y2="15.0181" gradientUnits="userSpaceOnUse">
<stop stop-color="#FF4D00"/>
<stop offset="1" stop-color="#FF7940"/>
</linearGradient>
<linearGradient id="paint3_linear_10_254" x1="2.79806" y1="24.2937" x2="13.784" y2="38.9811" gradientUnits="userSpaceOnUse">
<stop stop-color="#37047C"/>
<stop offset="1" stop-color="#FF4D00"/>
</linearGradient>
<linearGradient id="paint4_linear_10_254" x1="33.4133" y1="19.4958" x2="20.536" y2="1.10902" gradientUnits="userSpaceOnUse">
<stop stop-color="#1F93FF"/>
<stop offset="1" stop-color="#FF3FF9"/>
</linearGradient>
<linearGradient id="paint5_linear_10_254" x1="19.5478" y1="34.7363" x2="33.647" y2="24.8057" gradientUnits="userSpaceOnUse">
<stop stop-color="#644DFF"/>
<stop offset="1" stop-color="#1F93FF"/>
</linearGradient>
<linearGradient id="paint6_linear_10_254" x1="7.86169" y1="19.8566" x2="17.6632" y2="19.4321" gradientUnits="userSpaceOnUse">
<stop stop-color="#FF3269"/>
<stop offset="1" stop-color="#FF3DF9"/>
</linearGradient>
<linearGradient id="paint7_linear_10_254" x1="12.3561" y1="-0.261413" x2="0.357132" y2="18.9479" gradientUnits="userSpaceOnUse">
<stop stop-color="#FF3EF9"/>
<stop offset="1" stop-color="#37047C"/>
</linearGradient>
<clipPath id="clip0_10_254">
<rect width="34" height="40" fill="white"/>
</clipPath>
</defs>
</svg>
