<svg width="22" height="24" viewBox="0 0 22 24" fill="none" xmlns="http://www.w3.org/2000/svg">
<path d="M17.0007 3.76C16.0893 2.7195 15.587 1.38324 15.5874 0H11.4674V16.5333C11.4356 17.428 11.0579 18.2755 10.4137 18.8973C9.76961 19.519 8.90933 19.8665 8.01406 19.8667C6.12073 19.8667 4.5474 18.32 4.5474 16.4C4.5474 14.1067 6.76073 12.3867 9.04073 13.0933V8.88C4.44073 8.26667 0.414062 11.84 0.414062 16.4C0.414062 20.84 4.09406 24 8.00073 24C12.1874 24 15.5874 20.6 15.5874 16.4V8.01333C17.2581 9.21313 19.2639 9.85686 21.3207 9.85333V5.73333C21.3207 5.73333 18.8141 5.85333 17.0007 3.76Z" fill="white"/>
</svg>
