<svg width="28" height="20" viewBox="0 0 28 20" fill="none" xmlns="http://www.w3.org/2000/svg">
<path d="M11.3334 14.0001L18.2534 10.0001L11.3334 6.00008V14.0001ZM26.7467 3.56008C26.92 4.18675 27.04 5.02675 27.12 6.09341C27.2134 7.16008 27.2534 8.08008 27.2534 8.88008L27.3334 10.0001C27.3334 12.9201 27.12 15.0667 26.7467 16.4401C26.4134 17.6401 25.64 18.4134 24.44 18.7467C23.8134 18.9201 22.6667 19.0401 20.9067 19.1201C19.1734 19.2134 17.5867 19.2534 16.12 19.2534L14 19.3334C8.41335 19.3334 4.93335 19.1201 3.56002 18.7467C2.36002 18.4134 1.58669 17.6401 1.25335 16.4401C1.08002 15.8134 0.96002 14.9734 0.88002 13.9067C0.786687 12.8401 0.746687 11.9201 0.746687 11.1201L0.666687 10.0001C0.666687 7.08008 0.88002 4.93341 1.25335 3.56008C1.58669 2.36008 2.36002 1.58675 3.56002 1.25341C4.18669 1.08008 5.33335 0.960081 7.09335 0.880081C8.82669 0.786748 10.4134 0.746748 11.88 0.746748L14 0.666748C19.5867 0.666748 23.0667 0.880081 24.44 1.25341C25.64 1.58675 26.4134 2.36008 26.7467 3.56008Z" fill="white"/>
</svg>
